<svg xmlns="http://www.w3.org/2000/svg" viewBox="0 0 512 512" fill="none">
  <defs>
    <linearGradient id="g1" x1="0" y1="0" x2="1" y2="1">
      <stop offset="0%" stop-color="#2962ff"/>
      <stop offset="100%" stop-color="#00bcd4"/>
    </linearGradient>
    <linearGradient id="g2" x1="0" y1="0" x2="0" y2="1">
      <stop offset="0%" stop-color="#26a69a"/>
      <stop offset="100%" stop-color="#1b5e20"/>
    </linearGradient>
    <linearGradient id="g3" x1="0" y1="1" x2="0" y2="0">
      <stop offset="0%" stop-color="#ef5350"/>
      <stop offset="100%" stop-color="#b71c1c"/>
    </linearGradient>
  </defs>
  <!-- Background rounded square -->
  <rect x="16" y="16" width="480" height="480" rx="64" fill="#0d1117"/>
  <!-- Grid lines (subtle) -->
  <line x1="80" y1="100" x2="432" y2="100" stroke="#1a2332" stroke-width="1"/>
  <line x1="80" y1="180" x2="432" y2="180" stroke="#1a2332" stroke-width="1"/>
  <line x1="80" y1="260" x2="432" y2="260" stroke="#1a2332" stroke-width="1"/>
  <line x1="80" y1="340" x2="432" y2="340" stroke="#1a2332" stroke-width="1"/>
  <line x1="80" y1="420" x2="432" y2="420" stroke="#1a2332" stroke-width="1"/>
  <!-- Candlestick 1 (green/up) -->
  <line x1="140" y1="140" x2="140" y2="380" stroke="url(#g2)" stroke-width="4" stroke-linecap="round"/>
  <rect x="120" y="200" width="40" height="120" rx="4" fill="url(#g2)"/>
  <!-- Candlestick 2 (red/down) -->
  <line x1="220" y1="100" x2="220" y2="360" stroke="url(#g3)" stroke-width="4" stroke-linecap="round"/>
  <rect x="200" y="140" width="40" height="140" rx="4" fill="url(#g3)"/>
  <!-- Candlestick 3 (green/up, tall) -->
  <line x1="300" y1="80" x2="300" y2="340" stroke="url(#g2)" stroke-width="4" stroke-linecap="round"/>
  <rect x="280" y="120" width="40" height="160" rx="4" fill="url(#g2)"/>
  <!-- Candlestick 4 (green/up) -->
  <line x1="380" y1="100" x2="380" y2="300" stroke="url(#g2)" stroke-width="4" stroke-linecap="round"/>
  <rect x="360" y="140" width="40" height="100" rx="4" fill="url(#g2)"/>
  <!-- Trend line overlay -->
  <line x1="120" y1="320" x2="400" y2="130" stroke="url(#g1)" stroke-width="3" stroke-linecap="round" stroke-dasharray="8 4" opacity="0.8"/>
  <!-- Glow effect on trend line -->
  <line x1="120" y1="320" x2="400" y2="130" stroke="#2962ff" stroke-width="8" stroke-linecap="round" opacity="0.15"/>
</svg>
